<svg width="509" height="202" viewBox="0 0 509 202" fill="none" xmlns="http://www.w3.org/2000/svg">
<path d="M356.445 161.379V161.879H356.945H449.088V197.313V197.813H449.588H483.156H483.656V197.313V161.879H508H508.5V161.379V132.537V132.037H508H483.656V3.64832V3.14832H483.156H463.174H462.674H449.968H449.468H439.347H439.072L438.925 3.38039L356.523 133.215L356.445 133.338V133.483V161.379ZM448.726 43.8646H449.468V132.037H393.478V131.169L448.726 43.8646Z" stroke="black"/>
<path d="M213.642 189.587L213.645 189.588C224.93 197.536 238.436 201.5 254.138 201.5C269.84 201.5 283.315 197.536 294.537 189.588C305.818 181.643 314.439 170.148 320.41 155.134C326.446 140.056 329.454 121.896 329.454 100.669C329.454 79.5687 326.446 61.5353 320.41 46.5829C314.438 31.6305 305.817 20.1981 294.535 12.3159C283.251 4.43212 269.777 0.5 254.138 0.5C238.5 0.5 225.026 4.43212 213.741 12.3159L213.74 12.3167C202.522 20.1986 193.902 31.6302 187.867 46.5812L187.866 46.5822C181.894 61.4713 178.886 79.5046 178.822 100.668V100.669C178.822 121.833 181.799 139.96 187.771 155.038L187.772 155.04C193.806 170.053 202.426 181.579 213.642 189.587ZM282.44 153.275L282.439 153.276C275.497 165.064 266.071 170.902 254.138 170.902C246.168 170.902 239.303 168.298 233.519 163.089C227.727 157.81 223.213 149.956 220.006 139.483C216.864 129.018 215.318 116.084 215.381 100.671L215.381 100.67C215.444 77.6332 218.981 60.2436 225.932 48.4405L225.933 48.4395C232.876 36.5874 242.271 30.7199 254.138 30.7199C262.043 30.7199 268.877 33.3535 274.663 38.6272L274.665 38.6292C280.456 43.8453 284.969 51.6352 288.176 62.0455C291.381 72.4478 292.99 85.3182 292.99 100.669C292.99 123.895 289.453 141.41 282.44 153.275Z" stroke="black"/>
<path d="M0.5 161.379V161.879H1H93.143V197.313V197.813H93.643H127.211H127.711V197.313V161.879H152.055H152.555V161.379V132.537V132.037H152.055H127.711V3.64832V3.14832H127.211H107.229H106.729H94.0223H93.5223H83.402H83.1272L82.9799 3.38039L0.577846 133.215L0.5 133.338V133.483V161.379ZM92.7804 43.8646H93.5223V132.037H37.5331V131.169L92.7804 43.8646Z" stroke="black"/>
</svg>
