<svg width="25" height="25" viewBox="0 0 25 25" fill="none" xmlns="http://www.w3.org/2000/svg">
<path d="M13.0357 10.3472H16.25L15.8929 11.875H13.0357V18.75H11.6071V11.875H8.75V10.3472H11.6071V8.91722C11.6071 7.55521 11.74 7.06097 11.9886 6.56292C12.2321 6.07082 12.6084 5.66841 13.0686 5.40792C13.5343 5.14208 13.9964 5 15.27 5C15.6429 5 15.97 5.03819 16.25 5.11458V6.52778H15.27C14.3243 6.52778 14.0364 6.58736 13.7429 6.75542C13.5257 6.87917 13.3643 7.05181 13.2486 7.28403C13.0914 7.59799 13.0357 7.90583 13.0357 8.91722V10.3472Z" fill="black" stroke="black" stroke-width="0.8"/>
</svg>
