<svg width="25" height="25" viewBox="0 0 25 25" fill="none" xmlns="http://www.w3.org/2000/svg">
<path d="M15.8375 8.4125C15.6892 8.4125 15.5442 8.45648 15.4208 8.5389C15.2975 8.62131 15.2013 8.73844 15.1446 8.87548C15.0878 9.01253 15.073 9.16333 15.1019 9.30882C15.1308 9.4543 15.2022 9.58794 15.3072 9.69283C15.4121 9.79772 15.5457 9.86915 15.6912 9.89809C15.8367 9.92702 15.9875 9.91217 16.1245 9.85541C16.2616 9.79864 16.3787 9.70252 16.4611 9.57917C16.5435 9.45584 16.5875 9.31083 16.5875 9.1625C16.5875 8.96358 16.5085 8.77282 16.3678 8.63217C16.2272 8.49152 16.0364 8.4125 15.8375 8.4125ZM18.7125 9.925C18.7003 9.40643 18.6032 8.89337 18.425 8.40625C18.2661 7.98946 18.0187 7.61205 17.7 7.3C17.3905 6.97964 17.0122 6.73386 16.5938 6.58125C16.1079 6.3976 15.5942 6.29826 15.075 6.2875C14.4125 6.25 14.2 6.25 12.5 6.25C10.8 6.25 10.5875 6.25 9.925 6.2875C9.40572 6.29826 8.89209 6.3976 8.40625 6.58125C7.98855 6.73541 7.61058 6.98097 7.3 7.3C6.97964 7.60948 6.73386 7.98777 6.58125 8.40625C6.3976 8.89209 6.29826 9.40572 6.2875 9.925C6.25 10.5875 6.25 10.8 6.25 12.5C6.25 14.2 6.25 14.4125 6.2875 15.075C6.29826 15.5942 6.3976 16.1079 6.58125 16.5938C6.73386 17.0122 6.97964 17.3905 7.3 17.7C7.61058 18.019 7.98855 18.2646 8.40625 18.4187C8.89209 18.6024 9.40572 18.7017 9.925 18.7125C10.5875 18.75 10.8 18.75 12.5 18.75C14.2 18.75 14.4125 18.75 15.075 18.7125C15.5942 18.7017 16.1079 18.6024 16.5938 18.4187C17.0122 18.2662 17.3905 18.0203 17.7 17.7C18.0202 17.3891 18.2677 17.0113 18.425 16.5938C18.6032 16.1066 18.7003 15.5936 18.7125 15.075C18.7125 14.4125 18.75 14.2 18.75 12.5C18.75 10.8 18.75 10.5875 18.7125 9.925ZM17.5875 15C17.5829 15.3967 17.5111 15.7898 17.375 16.1625C17.2752 16.4345 17.1149 16.6802 16.9062 16.8812C16.7035 17.0878 16.4583 17.2477 16.1875 17.35C15.8148 17.4861 15.4217 17.5579 15.025 17.5625C14.4 17.5938 14.1687 17.6 12.525 17.6C10.8812 17.6 10.65 17.6 10.025 17.5625C9.61306 17.5702 9.20287 17.5068 8.8125 17.375C8.55362 17.2676 8.3196 17.108 8.125 16.9062C7.91756 16.7055 7.75927 16.4595 7.6625 16.1875C7.50991 15.8095 7.42527 15.4075 7.4125 15C7.4125 14.375 7.375 14.1437 7.375 12.5C7.375 10.8562 7.375 10.625 7.4125 10C7.4153 9.59441 7.48934 9.19247 7.63125 8.8125C7.74128 8.54869 7.91017 8.31353 8.125 8.125C8.31488 7.91011 8.54956 7.73943 8.8125 7.625C9.19347 7.48753 9.595 7.41567 10 7.4125C10.625 7.4125 10.8562 7.375 12.5 7.375C14.1437 7.375 14.375 7.375 15 7.4125C15.3967 7.41705 15.7898 7.4889 16.1625 7.625C16.4465 7.73041 16.7014 7.90178 16.9062 8.125C17.1111 8.31698 17.2711 8.55171 17.375 8.8125C17.5139 9.19308 17.5858 9.59486 17.5875 10C17.6187 10.625 17.625 10.8562 17.625 12.5C17.625 14.1437 17.6187 14.375 17.5875 15ZM12.5 9.29375C11.8661 9.29498 11.2469 9.48408 10.7204 9.83713C10.194 10.1902 9.78398 10.6914 9.54227 11.2773C9.30056 11.8633 9.23795 12.5078 9.36237 13.1293C9.48679 13.7509 9.79265 14.3216 10.2413 14.7693C10.6899 15.2172 11.2613 15.5219 11.883 15.6451C12.5048 15.7683 13.1492 15.7044 13.7347 15.4616C14.3202 15.2188 14.8206 14.8077 15.1726 14.2807C15.5246 13.7535 15.7125 13.1339 15.7125 12.5C15.7133 12.0782 15.6307 11.6604 15.4695 11.2706C15.3083 10.8808 15.0716 10.5268 14.7731 10.2288C14.4745 9.93081 14.12 9.6948 13.7299 9.53433C13.3398 9.37387 12.9218 9.2921 12.5 9.29375ZM12.5 14.5813C12.0884 14.5813 11.686 14.4592 11.3437 14.2305C11.0015 14.0018 10.7347 13.6768 10.5772 13.2965C10.4196 12.9162 10.3784 12.4977 10.4587 12.094C10.539 11.6902 10.7373 11.3194 11.0283 11.0283C11.3194 10.7373 11.6902 10.539 12.094 10.4587C12.4977 10.3784 12.9162 10.4196 13.2965 10.5772C13.6768 10.7347 14.0018 11.0015 14.2305 11.3437C14.4592 11.686 14.5813 12.0884 14.5813 12.5C14.5813 12.7733 14.5274 13.044 14.4228 13.2965C14.3182 13.549 14.1649 13.7784 13.9717 13.9717C13.7784 14.1649 13.549 14.3182 13.2965 14.4228C13.044 14.5274 12.7733 14.5813 12.5 14.5813Z" fill="black"/>
</svg>
