<?xml version="1.0" encoding="utf-8"?>
<svg xmlns="http://www.w3.org/2000/svg" width="113.628" height="20" viewBox="0 0 113.628 20"><g transform="translate(0 0)"><path d="M251.535,222.124v14.984h9.541v4.281H246.336V222.124Z" transform="translate(-246.336 -221.757)" fill="#0c1a3c"/><path d="M277.209,222.124l7.675,19.265H279.35l-1.437-3.73h-7.523l-1.437,3.73h-5.229l7.676-19.265Zm-5.321,11.652h4.525l-2.2-5.688h-.123Z" transform="translate(-247.694 -221.757)" fill="#0c1a3c"/><path d="M295.765,221.726c5.9,0,9.051,3.761,9.418,8.562l-4.985.183c-.305-2.141-1.468-4.129-4.465-4.129-2.844,0-4.5,2.11-4.5,5.383s1.651,5.382,4.5,5.382c3,0,4.159-1.988,4.465-4.127l4.985.213c-.367,4.8-3.516,8.533-9.418,8.533a10,10,0,0,1,0-20Z" transform="translate(-249.426 -221.726)" fill="#0c1a3c"/><path d="M308.946,241.389V222.124h5.2v7.431h7.676v-7.431h5.2v19.265h-5.2v-7.614h-7.676v7.614Z" transform="translate(-251.228 -221.757)" fill="#0c1a3c"/><path d="M346.908,241.389H331.74V222.124h14.894v4.281h-9.787v3.15H344.4v4.22h-7.554v3.333h10.061Z" transform="translate(-253.008 -221.757)" fill="#0c1a3c"/><path d="M362.855,241.389c-.4-.519-.643-1.712-.8-3.7-.153-2.2-1.1-2.691-2.844-2.691h-3.456v6.39h-5.107V222.124h9.725c4.985,0,7.463,2.354,7.463,6.116a4.67,4.67,0,0,1-4.1,4.954,3.809,3.809,0,0,1,3.363,3.762c.276,2.874.367,3.731,1.009,4.433Zm-3.4-10.4c2.2,0,3.3-.551,3.3-2.324,0-1.56-1.1-2.386-3.3-2.386h-3.7v4.71Z" transform="translate(-254.486 -221.757)" fill="#0c1a3c"/></g></svg>
