<svg width="25" height="25" viewBox="0 0 25 25" fill="none" xmlns="http://www.w3.org/2000/svg">
<path d="M18.6255 9.65773C18.6255 9.65773 18.5034 8.67745 18.1274 8.24701C17.6514 7.68051 17.1191 7.67773 16.875 7.6444C15.127 7.5 12.5024 7.5 12.5024 7.5H12.4976C12.4976 7.5 9.87304 7.5 8.125 7.6444C7.88086 7.67773 7.34863 7.68051 6.87256 8.24701C6.49658 8.67745 6.37695 9.65773 6.37695 9.65773C6.37695 9.65773 6.25 10.8102 6.25 11.9599V13.0374C6.25 14.187 6.37451 15.3395 6.37451 15.3395C6.37451 15.3395 6.49658 16.3197 6.87012 16.7502C7.34619 17.3167 7.97119 17.2972 8.24951 17.3583C9.25049 17.4667 12.5 17.5 12.5 17.5C12.5 17.5 15.127 17.4944 16.875 17.3528C17.1191 17.3195 17.6514 17.3167 18.1274 16.7502C18.5034 16.3197 18.6255 15.3395 18.6255 15.3395C18.6255 15.3395 18.75 14.1898 18.75 13.0374V11.9599C18.75 10.8102 18.6255 9.65773 18.6255 9.65773ZM11.2085 14.3453V10.3492L14.5849 12.3542L11.2085 14.3453Z" fill="black"/>
</svg>
